<svg width="25" height="27" viewBox="0 0 25 27" fill="none" xmlns="http://www.w3.org/2000/svg">
<path d="M25 3.66123V24.9163C24.6785 26.0783 23.9749 26.3635 22.9989 26.3614C15.9532 26.3455 8.90812 26.3531 1.8624 26.3503C1.64421 26.3503 1.41829 26.3469 1.20979 26.2887C0.42743 26.0714 0.000103281 25.416 0.000103281 24.4685C0.000103281 17.6728 0.000103281 10.8778 0.000103281 4.08272C0.000103281 4.02182 -0.000542227 3.96022 0.0013943 3.89932C0.0356062 2.93453 0.691443 2.22928 1.59193 2.19814C1.92501 2.18637 2.25874 2.19537 2.59247 2.19537C3.16051 2.19537 3.72856 2.19537 4.32695 2.19537C4.32695 2.31026 4.32695 2.40369 4.32695 2.49712C4.32695 3.31726 4.31081 4.1374 4.33534 4.95684C4.34502 5.28075 4.38762 5.62887 4.51285 5.91748C4.84852 6.69125 5.45917 7.02138 6.24798 7.01861C7.52286 7.01445 8.25099 6.24553 8.25164 4.88487C8.25164 4.08203 8.25164 3.27989 8.25164 2.47705V2.20852H16.946C16.946 2.31441 16.946 2.40853 16.946 2.50266C16.946 3.3311 16.9408 4.16024 16.9473 4.98868C16.9544 5.83235 17.2971 6.46977 18.0201 6.82482C18.5101 7.06567 19.04 7.04283 19.5545 6.93694C20.4369 6.75561 20.8668 6.18186 20.8726 5.21777C20.8778 4.31042 20.8739 3.40308 20.8739 2.49643C20.8739 2.4023 20.8739 2.30887 20.8739 2.21129C21.7963 2.21129 22.6897 2.20229 23.5831 2.2189C23.7619 2.22236 23.9478 2.30541 24.1144 2.38915C24.6179 2.64108 24.8657 3.10755 25 3.66054V3.66123ZM23.383 9.0077H1.61839V24.6291H23.383V9.0077Z" fill="#007273"/>
<path d="M5.1261 3.08472C5.1261 2.45699 5.12416 1.82925 5.1261 1.20152C5.12932 0.480352 5.53083 0.0554025 6.20926 0.0498657C6.25832 0.0498657 6.30673 0.0498657 6.35579 0.0498657C7.03809 0.0547104 7.44476 0.465125 7.45057 1.19183C7.46025 2.4646 7.45896 3.73806 7.45057 5.01083C7.44605 5.73961 7.04326 6.15626 6.36483 6.16456C6.24347 6.16595 6.12018 6.16595 6.00011 6.14795C5.47919 6.07044 5.13578 5.66417 5.12868 5.09873C5.12029 4.42739 5.12674 3.75606 5.1261 3.08472Z" fill="#007273"/>
<path d="M20.0715 3.07573C20.0715 3.72076 20.0747 4.3658 20.0708 5.01153C20.0663 5.69532 19.6745 6.12166 19.038 6.12719C18.8366 6.12927 18.6262 6.12927 18.4358 6.07113C18.0497 5.95348 17.8283 5.65518 17.7677 5.22816C17.7522 5.11673 17.747 5.00253 17.747 4.88972C17.7457 3.68685 17.7502 2.48329 17.7444 1.28042C17.7425 0.815331 17.838 0.395227 18.2505 0.173063C18.6862 -0.0615589 19.1536 -0.0567142 19.5873 0.18206C19.9146 0.362006 20.0682 0.690753 20.0702 1.08802C20.0734 1.75036 20.0708 2.41339 20.0715 3.07573Z" fill="#007273"/>
<path d="M5.37008 22.9729C4.93888 22.9729 4.50832 22.975 4.07712 22.9722C3.80343 22.9701 3.74856 22.9127 3.74791 22.6192C3.74598 21.8171 3.74598 21.015 3.74791 20.2128C3.74856 19.9166 3.8002 19.8578 4.07454 19.8571C4.95243 19.8543 5.83097 19.8585 6.70886 19.8543C6.93091 19.8536 7.0342 19.9471 7.03226 20.1969C7.02516 21.0073 7.0258 21.8185 7.03226 22.6289C7.0342 22.8753 6.93866 22.9771 6.71209 22.9743C6.26475 22.9681 5.81741 22.9722 5.37072 22.9722L5.37008 22.9729Z" fill="#007273"/>
<path d="M10.0829 22.9729C9.63559 22.9729 9.18825 22.9694 8.74156 22.9743C8.52725 22.977 8.43236 22.8822 8.4343 22.6462C8.44011 21.8268 8.44075 21.0073 8.4343 20.1879C8.43236 19.9526 8.52273 19.8543 8.73768 19.855C9.63236 19.8578 10.5264 19.8571 11.4211 19.855C11.638 19.855 11.7225 19.9657 11.7212 20.1955C11.7154 21.0059 11.7148 21.8171 11.7212 22.6275C11.7232 22.8725 11.6283 22.977 11.4011 22.9736C10.9621 22.9674 10.5232 22.9715 10.0836 22.9715L10.0829 22.9729Z" fill="#007273"/>
<path d="M14.7951 19.8557C15.2263 19.8557 15.6569 19.8591 16.0881 19.8543C16.3121 19.8515 16.4108 19.9512 16.4083 20.1997C16.4012 21.0101 16.4012 21.8213 16.4083 22.6317C16.4102 22.8802 16.3101 22.975 16.0855 22.9743C15.1992 22.9694 14.3129 22.9701 13.4267 22.9743C13.2104 22.975 13.12 22.876 13.122 22.6428C13.1278 21.8233 13.1284 21.0039 13.122 20.1844C13.12 19.947 13.2175 19.8536 13.4292 19.855C13.8843 19.8585 14.3401 19.8564 14.7951 19.8564V19.8557Z" fill="#007273"/>
<path d="M19.4331 22.9729C19.0019 22.9729 18.5713 22.975 18.1401 22.9722C17.8651 22.9701 17.8135 22.9148 17.8129 22.6186C17.8109 21.8164 17.8109 21.0143 17.8129 20.2121C17.8129 19.9166 17.8645 19.8578 18.1388 19.8571C19.0167 19.8543 19.8953 19.8578 20.7732 19.8543C20.9952 19.8536 21.0978 19.9477 21.0959 20.1976C21.0888 21.008 21.0888 21.8192 21.0959 22.6296C21.0978 22.8767 21.001 22.9771 20.7751 22.9743C20.3278 22.9681 19.8804 22.9722 19.4337 22.9722L19.4331 22.9729Z" fill="#007273"/>
<path d="M14.7487 14.2358C14.3097 14.2358 13.8708 14.2303 13.4318 14.2379C13.2162 14.2413 13.12 14.1514 13.122 13.9147C13.1271 13.0869 13.1265 12.2585 13.1226 11.4307C13.122 11.2217 13.2065 11.1283 13.4008 11.129C14.311 11.131 15.2218 11.131 16.132 11.129C16.3276 11.129 16.4076 11.2293 16.407 11.4363C16.4037 12.264 16.4031 13.0925 16.407 13.9202C16.4083 14.1396 16.3211 14.2393 16.1146 14.2372C15.6595 14.2323 15.2044 14.2358 14.7487 14.2358Z" fill="#007273"/>
<path d="M19.4408 14.2359C19.0103 14.2359 18.5791 14.2372 18.1485 14.2359C17.8606 14.2345 17.8148 14.1895 17.8135 13.894C17.8116 13.0835 17.818 12.2731 17.8096 11.4626C17.807 11.2086 17.9097 11.1263 18.133 11.1283C19.0109 11.1346 19.8888 11.129 20.7667 11.1318C21.0462 11.1325 21.0927 11.1851 21.0933 11.4855C21.0946 12.2786 21.0946 13.0717 21.0933 13.8649C21.0933 14.1895 21.0468 14.2359 20.7338 14.2366C20.3032 14.2379 19.872 14.2366 19.4415 14.2366L19.4408 14.2359Z" fill="#007273"/>
<path d="M5.37078 18.5989C4.93183 18.5989 4.49289 18.594 4.05394 18.6009C3.83963 18.6044 3.74345 18.5137 3.74539 18.2763C3.7512 17.4569 3.75055 16.6381 3.74539 15.8187C3.7441 15.5861 3.83189 15.4886 4.05072 15.4899C4.94474 15.4955 5.83877 15.4948 6.73345 15.4906C6.93743 15.4899 7.03167 15.5806 7.03103 15.8028C7.0278 16.6305 7.02715 17.459 7.03103 18.2867C7.03232 18.5103 6.93872 18.6016 6.73603 18.6002C6.28095 18.5961 5.82586 18.5989 5.37013 18.5989H5.37078Z" fill="#007273"/>
<path d="M10.0836 18.5988C9.63627 18.5988 9.18957 18.594 8.74224 18.6009C8.52857 18.6044 8.43175 18.5165 8.43368 18.2777C8.44014 17.4583 8.43949 16.6395 8.43368 15.8201C8.43239 15.5882 8.51695 15.4892 8.73707 15.4906C9.6311 15.4962 10.5251 15.4955 11.4198 15.4913C11.6231 15.4906 11.7193 15.5799 11.7187 15.8021C11.7154 16.6298 11.7148 17.4583 11.7187 18.286C11.72 18.5082 11.6277 18.6023 11.4243 18.6002C10.977 18.5961 10.5303 18.5988 10.083 18.5988H10.0836Z" fill="#007273"/>
<path d="M14.7777 15.4927C15.2083 15.4927 15.6395 15.4913 16.07 15.4927C16.3495 15.494 16.4038 15.5487 16.4044 15.8387C16.4063 16.6492 16.4012 17.4596 16.4076 18.27C16.4096 18.5047 16.3185 18.6009 16.1023 18.5995C15.2083 18.5953 14.3142 18.5946 13.4196 18.5995C13.1982 18.6009 13.1194 18.495 13.1207 18.2645C13.1272 17.4541 13.1272 16.6436 13.1207 15.8332C13.1188 15.5902 13.2033 15.4837 13.4364 15.4885C13.883 15.4982 14.3304 15.4913 14.7777 15.4913V15.4927Z" fill="#007273"/>
<path d="M19.4332 15.4927C19.8805 15.4927 20.3272 15.4989 20.7745 15.4899C21.0024 15.4858 21.0979 15.5827 21.096 15.8304C21.0896 16.6409 21.0889 17.4513 21.096 18.2618C21.0986 18.5123 20.9992 18.6023 20.7739 18.6009C19.8876 18.5954 19.002 18.5961 18.1157 18.6009C17.9007 18.6023 17.8078 18.513 17.8097 18.2749C17.8168 17.4555 17.8162 16.6361 17.8097 15.8173C17.8078 15.5827 17.8975 15.4865 18.115 15.4899C18.554 15.4975 18.9929 15.492 19.4319 15.492L19.4332 15.4927Z" fill="#007273"/>
</svg>
