<?xml version="1.0" encoding="UTF-8"?>
<svg id="Layer_2" data-name="Layer 2" xmlns="http://www.w3.org/2000/svg" xmlns:xlink="http://www.w3.org/1999/xlink" viewBox="0 0 553.16 397.36">
  <defs>
    <style>
      .cls-1 {
        letter-spacing: 0em;
      }

      .cls-2 {
        filter: url(#luminosity-noclip-2);
      }

      .cls-3 {
        letter-spacing: 0em;
      }

      .cls-4 {
        mask: url(#mask);
      }

      .cls-5 {
        fill: url(#linear-gradient);
      }

      .cls-5, .cls-6, .cls-7, .cls-8, .cls-9, .cls-10 {
        stroke-width: 0px;
      }

      .cls-11 {
        filter: url(#luminosity-noclip);
      }

      .cls-12 {
        letter-spacing: 0em;
      }

      .cls-13 {
        font-family: NeuzeitGroExt-Bla, 'Neuzeit Grotesk ExtCond';
        font-size: 40.28px;
      }

      .cls-13, .cls-8 {
        fill: #cedf29;
      }

      .cls-14 {
        letter-spacing: .01em;
      }

      .cls-15 {
        letter-spacing: -.01em;
      }

      .cls-16 {
        letter-spacing: 0em;
      }

      .cls-17 {
        letter-spacing: 0em;
      }

      .cls-18 {
        letter-spacing: 0em;
      }

      .cls-19 {
        letter-spacing: 0em;
      }

      .cls-20 {
        letter-spacing: 0em;
      }

      .cls-21 {
        letter-spacing: 0em;
      }

      .cls-6 {
        fill: url(#linear-gradient-2);
      }

      .cls-22 {
        mask: url(#mask-1);
      }

      .cls-9 {
        fill: #fff;
      }

      .cls-10 {
        fill: #007273;
      }

      .cls-23 {
        letter-spacing: 0em;
      }
    </style>
    <filter id="luminosity-noclip" x="23.35" y="64.37" width="122.36" height="111.9" color-interpolation-filters="sRGB" filterUnits="userSpaceOnUse">
      <feFlood flood-color="#fff" result="bg"/>
      <feBlend in="SourceGraphic" in2="bg"/>
    </filter>
    <linearGradient id="linear-gradient" x1="84.52" y1="85.28" x2="84.52" y2="154.31" gradientUnits="userSpaceOnUse">
      <stop offset="0" stop-color="#fff"/>
      <stop offset="1" stop-color="#000"/>
    </linearGradient>
    <mask id="mask" x="23.35" y="64.37" width="122.36" height="111.9" maskUnits="userSpaceOnUse">
      <g class="cls-11">
        <rect class="cls-5" x="23.35" y="64.37" width="122.36" height="111.9"/>
      </g>
    </mask>
    <filter id="luminosity-noclip-2" x="-53.24" y="74.44" width="186.26" height="90.17" color-interpolation-filters="sRGB" filterUnits="userSpaceOnUse">
      <feFlood flood-color="#fff" result="bg"/>
      <feBlend in="SourceGraphic" in2="bg"/>
    </filter>
    <linearGradient id="linear-gradient-2" x1="12.45" y1="84.95" x2="12.45" y2="156.23" xlink:href="#linear-gradient"/>
    <mask id="mask-1" x="-53.24" y="74.44" width="186.26" height="90.17" maskUnits="userSpaceOnUse">
      <g class="cls-2">
        <g>
          <path class="cls-9" d="m35.17,87.4h37.89l12.79,35.25h.1l12.6-35.25h34.47v64.26h-24.32l.1-44.82h-.1l-16.31,44.82h-19.43l-16.31-44.82h-.2l.1,44.82h-21.39v-64.26Z"/>
          <rect class="cls-6" x="-53.24" y="74.44" width="131.37" height="90.17"/>
        </g>
      </g>
    </mask>
  </defs>
  <g id="Layer_1-2" data-name="Layer 1">
    <g>
      <rect class="cls-10" y="297.15" width="553.16" height="100.21"/>
      <text class="cls-13" transform="translate(45.61 340.93)"><tspan class="cls-23" x="0" y="0">P</tspan><tspan x="17.44" y="0">hilippine </tspan><tspan class="cls-20" x="153.9" y="0">C</tspan><tspan x="171.34" y="0">olle</tspan><tspan class="cls-21" x="226.2" y="0">g</tspan><tspan x="243.96" y="0">e of </tspan><tspan class="cls-23" x="310.86" y="0">P</tspan><tspan class="cls-16" x="328.3" y="0">h</tspan><tspan class="cls-1" x="345.86" y="0">y</tspan><tspan x="362.82" y="0">sicians</tspan><tspan class="cls-17" x="84.28" y="39.52">Q</tspan><tspan x="103.9" y="39.52">u</tspan><tspan class="cls-12" x="121.46" y="39.52">e</tspan><tspan class="cls-15" x="138.65" y="39.52">z</tspan><tspan x="153.36" y="39.52">on Ci</tspan><tspan class="cls-14" x="225.25" y="39.52">t</tspan><tspan x="237.09" y="39.52">y Cha</tspan><tspan class="cls-3" x="317.04" y="39.52">p</tspan><tspan class="cls-18" x="335.33" y="39.52">t</tspan><tspan class="cls-19" x="346.61" y="39.52">er</tspan></text>
      <rect class="cls-10" x="1.3" width="551" height="71"/>
      <path class="cls-7" d="m1.29,87.4h24.41v64.26H1.29v-64.26Z"/>
      <path class="cls-7" d="m35.17,87.4h37.89l12.79,35.25h.1l12.6-35.25h34.47v64.26h-24.32l.1-44.82h-.1l-16.31,44.82h-19.43l-16.31-44.82h-.2l.1,44.82h-21.39v-64.26Z"/>
      <g class="cls-4">
        <path class="cls-10" d="m35.17,87.4h37.89l12.79,35.25h.1l12.6-35.25h34.47v64.26h-24.32l.1-44.82h-.1l-16.31,44.82h-19.43l-16.31-44.82h-.2l.1,44.82h-21.39v-64.26Z"/>
      </g>
      <g class="cls-22">
        <path class="cls-10" d="m1.29,87.4h24.41v64.26H1.29v-64.26Z"/>
      </g>
      <path class="cls-10" d="m141.22,117.96h28.71v12.11h-28.71v-12.11Z"/>
      <path class="cls-10" d="m235.26,140.13h-30.66l-5.18,11.52h-24.61l31.93-64.26h30.57l31.93,64.26h-28.81l-5.18-11.52Zm-5.18-11.62l-9.96-22.27h-.29l-9.96,22.27h20.21Z"/>
      <path class="cls-10" d="m273.44,135.93l38.09-30.47v-.2h-37.79v-17.87h68.75v17.19l-36.52,29.1v.1h36.33v17.87h-68.85v-15.72Z"/>
      <path class="cls-10" d="m350.39,87.4h24.41v64.26h-24.41v-64.26Z"/>
      <path class="cls-10" d="m384.27,87.4h33.79l25.39,33.01h.1l-.2-33.01h21.39v64.26h-28.32l-30.96-40.23h-.2l.39,40.23h-21.39v-64.26Z"/>
      <path class="cls-10" d="m472.06,120.41c0-18.75,13.48-34.18,41.89-34.18s37.4,12.21,37.4,24.41c0,.59,0,1.56-.1,2.44h-20.31v-.49c0-4.39-4.1-9.18-15.72-9.18s-18.16,7.03-18.16,17.09,5.27,17.09,17.97,17.09c10.94,0,14.84-5.47,14.84-8.89v-.2h-17.19v-9.96h39.65v33.11h-18.65c.1-2.54.2-7.42.2-11.43h-.2c-2.25,7.32-9.38,12.6-24.02,12.6-26.95,0-37.6-15.43-37.6-32.42Z"/>
      <g>
        <path class="cls-10" d="m0,163.44h69.08c43.82,0,57.21,13.21,57.21,33.29,0,11.04-4.68,21.91-20.74,26.26v.33c17.9,3.68,20.24,15.56,20.24,26.93v23.25h-41.65v-24.42c0-9.37-3.85-13.38-14.39-13.38h-27.93v37.8H0v-110.06Zm69.58,52.35c12.54,0,17.06-4.68,17.06-11.71,0-6.52-4.52-11.21-19.07-11.21h-25.76v22.92h27.77Z"/>
        <path class="cls-10" d="m239.19,253.77h-52.52l-8.87,19.74h-42.15l54.7-110.06h52.35l54.7,110.06h-49.34l-8.86-19.74Zm-8.87-19.91l-17.06-38.14h-.5l-17.06,38.14h34.62Z"/>
        <path class="cls-10" d="m297.58,218.64c0-32.78,23.42-57.21,70.75-57.21,50.18,0,65.57,26.43,65.57,45.83,0,.67,0,2.34-.17,3.34h-35.46v-.67c0-9.37-8.53-19.07-27.1-19.07s-29.61,11.71-29.61,27.77,9.03,27.43,29.77,27.43c17.73,0,27.26-7.86,27.26-18.73v-.84h35.46c.17,1.17.17,2.51.17,2.84,0,22.25-16.73,46.17-65.74,46.17-53.69,0-70.92-28.44-70.92-56.87Z"/>
        <path class="cls-10" d="m446.61,163.44h104.88v29.44h-63.06v16.23h46.33v18.23h-46.33v16.73h64.73v29.44h-106.55v-110.06Z"/>
      </g>
      <g>
        <path class="cls-8" d="m213.42,27.19h-15.75v-12.42h48.46v12.42h-15.75v32.24h-16.97V27.19Z"/>
        <path class="cls-8" d="m250.81,14.77h16.97v15.61h22.06v-15.61h16.9v44.66h-16.9v-16.7h-22.06v16.7h-16.97V14.77Z"/>
        <path class="cls-8" d="m313.04,14.77h42.56v11.95h-25.59v6.58h18.8v7.4h-18.8v6.79h26.27v11.95h-43.23V14.77Z"/>
      </g>
    </g>
  </g>
</svg>