<?xml version="1.0" encoding="utf-8"?>
<!-- Generator: Adobe Illustrator 28.0.0, SVG Export Plug-In . SVG Version: 6.00 Build 0)  -->
<svg version="1.1" id="Layer_2_00000156579324262828275450000013045722855611928488_"
	 xmlns="http://www.w3.org/2000/svg" xmlns:xlink="http://www.w3.org/1999/xlink" x="0px" y="0px" viewBox="0 0 553.2 397.4"
	 style="enable-background:new 0 0 553.2 397.4;" xml:space="preserve">
<style type="text/css">
	.st0{fill:#007273;}
	.st1{enable-background:new    ;}
	.st2{fill:#CEDF29;}
</style>
<g id="Layer_1-2">
	<g>
		<g>
			<rect y="297.1" class="st0" width="553.2" height="100.2"/>
		</g>
		<g class="st1">
			<path class="st2" d="M53.8,314.1c5.5,0,8.2,3,8.2,9.1c0,5.9-2.8,9-8.2,9h-0.6v8.7H48v-26.9H53.8z M53.3,328
				c1.1,0,1.7-0.1,2.2-0.6c0.8-0.7,1.2-2.2,1.2-4.2c0-3.5-0.9-4.8-3.4-4.8V328z"/>
		</g>
		<g class="st1">
			<path class="st2" d="M70.4,323.7c1.5-2.4,2.7-3.2,4.5-3.2c2.4,0,3.7,1.7,3.7,4.8v15.6h-5v-13.2c0-2-0.4-2.7-1.7-2.7
				c-1.2,0-1.7,0.8-1.7,2.7v13.2h-5v-26.9h5V323.7z"/>
			<path class="st2" d="M88.2,316.2c0,1.5-1.2,2.7-2.7,2.7c-1.5,0-2.7-1.2-2.7-2.7c0-1.4,1.2-2.7,2.7-2.7
				C87,313.5,88.2,314.7,88.2,316.2z M88,321.1v19.9h-5v-19.9H88z"/>
			<path class="st2" d="M97.5,314.1v26.9h-5v-26.9H97.5z"/>
			<path class="st2" d="M107.3,316.2c0,1.5-1.2,2.7-2.7,2.7c-1.5,0-2.7-1.2-2.7-2.7c0-1.4,1.2-2.7,2.7-2.7
				C106.1,313.5,107.3,314.7,107.3,316.2z M107,321.1v19.9h-5v-19.9H107z"/>
			<path class="st2" d="M112.4,321.1h4.8v3.6c1.1-3.1,2.2-4.1,4.1-4.1c3.2,0,5.1,3.8,5.1,10.4c0,3.4-0.6,6.5-1.5,8.1
				c-0.9,1.6-2.1,2.4-3.5,2.4c-1.7,0-2.8-1.1-4.1-3.9v10.3h-5V321.1z M117.1,330.9c0,4,0.7,5.9,2.1,5.9c1.3,0,2-1.9,2-5.8
				s-0.6-5.8-2-5.8C117.8,325.1,117.1,327,117.1,330.9z"/>
			<path class="st2" d="M130.4,321.1h4.8v3.6c1.1-3.1,2.2-4.1,4.1-4.1c3.2,0,5.1,3.8,5.1,10.4c0,3.4-0.6,6.5-1.5,8.1
				c-0.9,1.6-2.1,2.4-3.5,2.4c-1.7,0-2.8-1.1-4.1-3.9v10.3h-5V321.1z M135.1,330.9c0,4,0.7,5.9,2.1,5.9c1.3,0,2-1.9,2-5.8
				s-0.6-5.8-2-5.8C135.8,325.1,135.1,327,135.1,330.9z"/>
			<path class="st2" d="M152.5,316.2c0,1.5-1.2,2.7-2.7,2.7c-1.5,0-2.7-1.2-2.7-2.7c0-1.4,1.2-2.7,2.7-2.7
				C151.3,313.5,152.5,314.7,152.5,316.2z M152.2,321.1v19.9h-5v-19.9H152.2z"/>
			<path class="st2" d="M161.3,323.9c1.5-2.5,2.8-3.4,4.7-3.4c2.4,0,3.7,1.7,3.7,4.8v15.6h-5v-13.2c0-2-0.4-2.7-1.7-2.7
				c-1.2,0-1.7,0.8-1.7,2.7v13.2h-5v-19.9h4.8V323.9z"/>
			<path class="st2" d="M178.4,332.1c0,3.8,0.7,5.5,2.3,5.5c1.2,0,1.9-0.9,2.4-3l4.4,1.1c-0.9,3.8-3.2,5.8-6.8,5.8
				c-4.8,0-7.1-3.3-7.1-10.3c0-7,2.5-10.6,7.2-10.6c3,0,5.3,1.5,6.2,4.1c0.6,1.7,0.9,3.9,0.9,6.3v1.1H178.4z M183,328.8
				c-0.1-3.1-0.7-4.3-2.3-4.3s-2.3,1.2-2.3,4.3H183z"/>
		</g>
		<g class="st1">
			<path class="st2" d="M211.2,321.8c-0.3-2.7-1-4-2.1-4c-1.9,0-2.6,2.8-2.6,10.2c0,6.7,0.6,9.2,2.3,9.2c1.4,0,2-1.4,2.3-4.9
				l4.6,1.7c-0.6,4.7-3.3,7.6-7.2,7.6c-2.6,0-4.9-1.4-6-3.7c-1.1-2.4-1.5-5-1.5-10c0-4.7,0.3-7.5,1.2-9.8c1-2.9,3.6-4.8,6.7-4.8
				c2.7,0,5,1.4,6,3.8c0.4,1,0.6,1.9,0.8,3.4L211.2,321.8z"/>
		</g>
		<g class="st1">
			<path class="st2" d="M233.1,331.1c0,6.5-2.7,10.3-7.3,10.3c-4.6,0-7.3-3.8-7.3-10.5c0-6.6,2.6-10.4,7.3-10.4
				C230.5,320.5,233.1,324.3,233.1,331.1z M223.7,331.1c0,4.6,0.6,6.4,2.2,6.4c1.5,0,2.1-1.9,2.1-6.3c0-4.6-0.6-6.4-2.2-6.4
				C224.3,324.7,223.7,326.5,223.7,331.1z"/>
			<path class="st2" d="M242,314.1v26.9h-5v-26.9H242z"/>
			<path class="st2" d="M251.8,314.1v26.9h-5v-26.9H251.8z"/>
			<path class="st2" d="M260.7,332.1c0,3.8,0.7,5.5,2.3,5.5c1.2,0,1.9-0.9,2.4-3l4.4,1.1c-0.9,3.8-3.2,5.8-6.8,5.8
				c-4.8,0-7.1-3.3-7.1-10.3c0-7,2.5-10.6,7.2-10.6c3,0,5.3,1.5,6.2,4.1c0.6,1.7,0.9,3.9,0.9,6.3v1.1H260.7z M265.4,328.8
				c-0.1-3.1-0.7-4.3-2.3-4.3s-2.3,1.2-2.3,4.3H265.4z"/>
		</g>
		<g class="st1">
			<path class="st2" d="M287.3,321.1v17.8c0,3.7-0.2,5-1.2,6.5c-1.2,1.7-3.6,2.8-6.2,2.8c-2.7,0-4.8-1.1-6.2-3.3l3.8-2.4
				c0.5,1.2,1.2,1.7,2.3,1.7c1.2,0,2.1-0.7,2.4-2.1c0.2-0.9,0.2-1.6,0.2-3.6V337c-1,2.9-2.3,4.1-4.1,4.1c-3.2,0-4.9-3.4-4.9-9.8
				c0-6.9,1.8-10.8,5-10.8c1.9,0,3.1,1.2,4.2,4.1v-3.6H287.3z M278.5,331.1c0,4,0.6,5.8,2,5.8c1.4,0,2.1-2,2.1-5.8
				c0-3.9-0.7-5.8-2.1-5.8C279.2,325.3,278.5,327.1,278.5,331.1z"/>
		</g>
		<g class="st1">
			<path class="st2" d="M296.1,332.1c0,3.8,0.7,5.5,2.3,5.5c1.2,0,1.9-0.9,2.4-3l4.4,1.1c-0.9,3.8-3.2,5.8-6.8,5.8
				c-4.8,0-7.1-3.3-7.1-10.3c0-7,2.5-10.6,7.2-10.6c3,0,5.3,1.5,6.2,4.1c0.6,1.7,0.9,3.9,0.9,6.3v1.1H296.1z M300.7,328.8
				c-0.1-3.1-0.7-4.3-2.3-4.3s-2.3,1.2-2.3,4.3H300.7z"/>
			<path class="st2" d="M333.3,331.1c0,6.5-2.7,10.3-7.3,10.3c-4.6,0-7.3-3.8-7.3-10.5c0-6.6,2.6-10.4,7.3-10.4
				C330.7,320.5,333.3,324.3,333.3,331.1z M323.9,331.1c0,4.6,0.6,6.4,2.2,6.4c1.5,0,2.1-1.9,2.1-6.3c0-4.6-0.6-6.4-2.2-6.4
				C324.5,324.7,323.9,326.5,323.9,331.1z"/>
			<path class="st2" d="M345.1,325H343v15.9h-5V325h-2v-3.9h2c0-2.3,0.2-3.5,0.8-4.7c0.8-1.6,2.5-2.4,4.8-2.4c0.2,0,0.9,0,1.4,0.1
				v4.3c-1.7,0-2.1,0.5-2.1,2.7h2.1V325z"/>
		</g>
		<g class="st1">
			<path class="st2" d="M364.7,314.1c5.5,0,8.2,3,8.2,9.1c0,5.9-2.8,9-8.2,9h-0.6v8.7h-5.2v-26.9H364.7z M364.1,328
				c1.1,0,1.7-0.1,2.2-0.6c0.8-0.7,1.2-2.2,1.2-4.2c0-3.5-0.9-4.8-3.4-4.8V328z"/>
		</g>
		<g class="st1">
			<path class="st2" d="M381.3,323.7c1.5-2.4,2.7-3.2,4.5-3.2c2.4,0,3.7,1.7,3.7,4.8v15.6h-5v-13.2c0-2-0.4-2.7-1.7-2.7
				c-1.2,0-1.7,0.8-1.7,2.7v13.2h-5v-26.9h5V323.7z"/>
		</g>
		<g class="st1">
			<path class="st2" d="M397.7,321.1l2.3,13.5l2.7-13.5h5.1l-7.3,26.8h-5l2.1-7.5l-5.2-19.4H397.7z"/>
		</g>
		<g class="st1">
			<path class="st2" d="M418.5,326.7c-0.3-1.5-1.1-2.2-2.2-2.2c-1,0-1.8,0.6-1.8,1.5c0,0.9,0.4,1.5,1.6,2.2c3.4,2.3,3.9,2.5,4.8,3.6
				c0.9,0.9,1.4,2.2,1.4,3.6c0,3.6-2.6,6.1-6.5,6.1c-3,0-5-1.2-6.2-3.8l3.8-2.5c0.4,1.7,1.2,2.5,2.4,2.5c1,0,1.8-0.7,1.8-1.7
				c0-1.1-0.6-1.7-3.7-3.8c-3.1-2.1-3.9-3.3-3.9-5.6c0-3.6,2.5-6,6.3-6c1.8,0,3.5,0.6,4.6,1.8c0.5,0.5,0.8,1,1.3,2L418.5,326.7z"/>
			<path class="st2" d="M430.7,316.2c0,1.5-1.2,2.7-2.7,2.7c-1.5,0-2.7-1.2-2.7-2.7c0-1.4,1.2-2.7,2.7-2.7
				C429.5,313.5,430.7,314.7,430.7,316.2z M430.5,321.1v19.9h-5v-19.9H430.5z"/>
			<path class="st2" d="M442.8,327.1c-0.4-1.8-0.8-2.5-1.6-2.5c-1.4,0-1.9,1.7-1.9,6.6c0,4.8,0.4,6.1,1.8,6.1c0.9,0,1.3-0.6,1.7-2.7
				l4.3,1.2c-0.4,1.7-0.8,2.7-1.5,3.6c-1,1.3-2.8,2.1-4.8,2.1c-2.2,0-4.1-1-5.2-2.8c-1-1.7-1.5-3.9-1.5-7.8c0-7.3,2-10.4,6.8-10.4
				c3.6,0,5.3,1.6,6.1,5.5L442.8,327.1z"/>
			<path class="st2" d="M455.6,316.2c0,1.5-1.2,2.7-2.7,2.7c-1.5,0-2.7-1.2-2.7-2.7c0-1.4,1.2-2.7,2.7-2.7
				C454.3,313.5,455.6,314.7,455.6,316.2z M455.3,321.1v19.9h-5v-19.9H455.3z"/>
			<path class="st2" d="M473,340.9h-4.8v-3.6c-1,2.9-2.2,4.1-4.1,4.1c-3.2,0-5.1-3.8-5.1-10.4c0-3.4,0.6-6.5,1.5-8.1
				c0.9-1.6,2.1-2.4,3.5-2.4c1.8,0,3.2,1.3,4.3,4.1v-3.6h4.8V340.9z M464.2,331.1c0,4,0.6,5.8,2,5.8c1.4,0,2.1-1.9,2.1-5.8
				c0-4-0.7-5.9-2.1-5.9C464.8,325.2,464.2,327.1,464.2,331.1z"/>
			<path class="st2" d="M482,323.9c1.5-2.5,2.8-3.4,4.7-3.4c2.4,0,3.7,1.7,3.7,4.8v15.6h-5v-13.2c0-2-0.4-2.7-1.7-2.7
				c-1.2,0-1.7,0.8-1.7,2.7v13.2h-5v-19.9h4.8V323.9z"/>
			<path class="st2" d="M502.7,326.7c-0.3-1.5-1.1-2.2-2.2-2.2c-1,0-1.8,0.6-1.8,1.5c0,0.9,0.4,1.5,1.6,2.2c3.4,2.3,3.9,2.5,4.8,3.6
				c0.9,0.9,1.4,2.2,1.4,3.6c0,3.6-2.6,6.1-6.5,6.1c-3,0-5-1.2-6.2-3.8l3.8-2.5c0.4,1.7,1.2,2.5,2.4,2.5c1,0,1.8-0.7,1.8-1.7
				c0-1.1-0.6-1.7-3.7-3.8c-3.1-2.1-3.9-3.3-3.9-5.6c0-3.6,2.5-6,6.3-6c1.8,0,3.5,0.6,4.6,1.8c0.5,0.5,0.8,1,1.3,2L502.7,326.7z"/>
		</g>
		<g class="st1">
			<path class="st2" d="M141.6,380.9c-0.8,0.2-1.3,0.3-2.1,0.3c-2.4,0-4.3-0.9-5.5-2.5c-1.9-2.5-2.5-5.7-2.5-11.6
				c0-5.9,0.7-9.1,2.6-11.6c1.2-1.6,3.1-2.5,5.5-2.5c2.3,0,4.3,0.9,5.5,2.5c1.9,2.5,2.6,5.7,2.6,11.5c0,5.7-0.6,8.6-2.2,11.2
				l2.3,3.3l-3.9,2.6L141.6,380.9z M136.9,367c0,7.4,0.6,9.5,2.7,9.5c2.1,0,2.7-2.3,2.7-9.4c0-7.5-0.6-9.7-2.7-9.7
				C137.5,357.4,136.9,359.7,136.9,367z"/>
		</g>
		<g class="st1">
			<path class="st2" d="M156.6,360.6v13.7c0,1.7,0.5,2.5,1.7,2.5c1.2,0,1.7-0.8,1.7-2.5v-13.7h5v12.8c0,4.9-2.4,7.5-6.6,7.5
				c-4.3,0-6.6-2.7-6.6-7.5v-12.8H156.6z"/>
		</g>
		<g class="st1">
			<path class="st2" d="M173.6,371.6c0,3.8,0.7,5.5,2.3,5.5c1.2,0,1.9-0.9,2.4-3l4.4,1.1c-0.9,3.8-3.2,5.8-6.8,5.8
				c-4.8,0-7.1-3.3-7.1-10.3c0-7,2.5-10.6,7.2-10.6c3,0,5.3,1.5,6.2,4.1c0.6,1.7,0.9,3.9,0.9,6.3v1.1H173.6z M178.2,368.3
				c-0.1-3.1-0.7-4.3-2.3-4.3s-2.3,1.2-2.3,4.3H178.2z"/>
		</g>
		<g class="st1">
			<path class="st2" d="M198.4,360.6l-6.7,15.8h6.2v4h-12.7v-0.7l6.6-15.1h-5.8v-4H198.4z"/>
		</g>
		<g class="st1">
			<path class="st2" d="M215.1,370.7c0,6.5-2.7,10.3-7.3,10.3c-4.6,0-7.3-3.8-7.3-10.5c0-6.6,2.6-10.4,7.3-10.4
				C212.5,360.1,215.1,363.8,215.1,370.7z M205.7,370.6c0,4.6,0.6,6.4,2.2,6.4c1.5,0,2.1-1.9,2.1-6.3c0-4.6-0.6-6.4-2.2-6.4
				C206.3,364.2,205.7,366.1,205.7,370.6z"/>
			<path class="st2" d="M223.6,363.5c1.5-2.5,2.8-3.4,4.7-3.4c2.4,0,3.7,1.7,3.7,4.8v15.6h-5v-13.2c0-2-0.4-2.7-1.7-2.7
				c-1.2,0-1.7,0.8-1.7,2.7v13.2h-5v-19.9h4.8V363.5z"/>
			<path class="st2" d="M255.9,361.4c-0.3-2.7-1-4-2.1-4c-1.9,0-2.6,2.8-2.6,10.2c0,6.7,0.6,9.2,2.3,9.2c1.4,0,2-1.4,2.3-4.9
				l4.6,1.7c-0.6,4.7-3.3,7.6-7.2,7.6c-2.6,0-4.9-1.4-6-3.7c-1.1-2.4-1.5-5-1.5-10c0-4.7,0.3-7.5,1.2-9.8c1-2.9,3.6-4.8,6.7-4.8
				c2.7,0,5,1.4,6,3.8c0.4,1,0.6,1.9,0.8,3.4L255.9,361.4z"/>
			<path class="st2" d="M269,355.7c0,1.5-1.2,2.7-2.7,2.7c-1.5,0-2.7-1.2-2.7-2.7c0-1.4,1.2-2.7,2.7-2.7
				C267.8,353,269,354.2,269,355.7z M268.7,360.6v19.9h-5v-19.9H268.7z"/>
		</g>
		<g class="st1">
			<path class="st2" d="M280.8,364.5h-2v9.8c0,1.7,0.3,2,1.5,2h0.5v4.1c-0.9,0.1-1.4,0.1-2.3,0.1c-3.7,0-4.6-1-4.6-5.4v-10.6h-1.9
				v-3.9h1.9V356h5v4.6h2V364.5z"/>
		</g>
		<g class="st1">
			<path class="st2" d="M288.9,360.6l2.3,13.5l2.7-13.5h5.1l-7.3,26.8h-5l2.1-7.5l-5.2-19.4H288.9z"/>
			<path class="st2" d="M321.5,361.4c-0.3-2.7-1-4-2.1-4c-1.9,0-2.6,2.8-2.6,10.2c0,6.7,0.6,9.2,2.3,9.2c1.4,0,2-1.4,2.3-4.9
				l4.6,1.7c-0.6,4.7-3.3,7.6-7.2,7.6c-2.6,0-4.9-1.4-6-3.7c-1.1-2.4-1.5-5-1.5-10c0-4.7,0.3-7.5,1.2-9.8c1-2.9,3.6-4.8,6.7-4.8
				c2.7,0,5,1.4,6,3.8c0.4,1,0.6,1.9,0.8,3.4L321.5,361.4z"/>
			<path class="st2" d="M334.5,363.2c1.5-2.4,2.7-3.2,4.5-3.2c2.4,0,3.7,1.7,3.7,4.8v15.6h-5v-13.2c0-2-0.4-2.7-1.7-2.7
				c-1.2,0-1.7,0.8-1.7,2.7v13.2h-5v-26.9h5V363.2z"/>
			<path class="st2" d="M360.5,380.5h-4.8v-3.6c-1,2.9-2.2,4.1-4.1,4.1c-3.2,0-5.1-3.8-5.1-10.4c0-3.4,0.6-6.5,1.5-8.1
				c0.9-1.6,2.1-2.4,3.5-2.4c1.8,0,3.2,1.3,4.3,4.1v-3.6h4.8V380.5z M351.7,370.6c0,4,0.6,5.8,2,5.8c1.4,0,2.1-1.9,2.1-5.8
				c0-4-0.7-5.9-2.1-5.9C352.3,364.7,351.7,366.6,351.7,370.6z"/>
		</g>
		<g class="st1">
			<path class="st2" d="M365.9,360.6h4.8v3.6c1.1-3.1,2.2-4.1,4.1-4.1c3.2,0,5.1,3.8,5.1,10.4c0,3.4-0.6,6.5-1.5,8.1
				c-0.9,1.6-2.1,2.4-3.5,2.4c-1.7,0-2.8-1.1-4.1-3.9v10.3h-5V360.6z M370.6,370.4c0,4,0.7,5.9,2.1,5.9c1.3,0,2-1.9,2-5.8
				s-0.6-5.8-2-5.8C371.3,364.6,370.6,366.5,370.6,370.4z"/>
		</g>
		<g class="st1">
			<path class="st2" d="M390.9,364.5h-2v9.8c0,1.7,0.3,2,1.5,2h0.5v4.1c-0.9,0.1-1.4,0.1-2.3,0.1c-3.7,0-4.6-1-4.6-5.4v-10.6H382
				v-3.9h1.9V356h5v4.6h2V364.5z"/>
		</g>
		<g class="st1">
			<path class="st2" d="M398.7,371.6c0,3.8,0.7,5.5,2.3,5.5c1.2,0,1.9-0.9,2.4-3l4.4,1.1c-0.9,3.8-3.2,5.8-6.8,5.8
				c-4.8,0-7.1-3.3-7.1-10.3c0-7,2.5-10.6,7.2-10.6c3,0,5.3,1.5,6.2,4.1c0.6,1.7,0.9,3.9,0.9,6.3v1.1H398.7z M403.4,368.3
				c-0.1-3.1-0.7-4.3-2.3-4.3s-2.3,1.2-2.3,4.3H403.4z"/>
			<path class="st2" d="M416.9,360.6v4.1c0.9-2.9,2.9-4.6,5.3-4.6v5.5c-0.6-0.1-1-0.1-1.5-0.1c-2.5,0-3.9,1.6-3.9,4.5v10.4h-5v-19.7
				H416.9z"/>
		</g>
		<g>
			<rect x="1.3" class="st0" width="551" height="71"/>
		</g>
		<g>
			<path d="M1.3,87.4h24.4v64.3H1.3V87.4z"/>
		</g>
		<g>
			<path d="M35.2,87.4h37.9l12.8,35.2h0.1l12.6-35.2H133v64.3h-24.3l0.1-44.8h-0.1l-16.3,44.8H73l-16.3-44.8h-0.2l0.1,44.8H35.2
				L35.2,87.4L35.2,87.4z"/>
		</g>
		<g>
			<g>
				<path class="st0" d="M35.2,87.4h37.9l12.8,35.2h0.1l12.6-35.2H133v64.3h-24.3l0.1-44.8h-0.1l-16.3,44.8H73l-16.3-44.8h-0.2
					l0.1,44.8H35.2L35.2,87.4L35.2,87.4z"/>
			</g>
		</g>
		<g>
			<g>
				<path class="st0" d="M1.3,87.4h24.4v64.3H1.3V87.4z"/>
			</g>
		</g>
		<g>
			<path class="st0" d="M141.2,118h28.7v12.1h-28.7C141.2,130.1,141.2,118,141.2,118z"/>
		</g>
		<g>
			<path class="st0" d="M235.3,140.1h-30.7l-5.2,11.5h-24.6l31.9-64.3h30.6l31.9,64.3h-28.8L235.3,140.1L235.3,140.1z M230.1,128.5
				l-10-22.3h-0.3l-10,22.3H230.1L230.1,128.5z"/>
		</g>
		<g>
			<path class="st0" d="M273.4,135.9l38.1-30.5v-0.2h-37.8V87.4h68.8v17.2L306,133.7v0.1h36.3v17.9h-68.9L273.4,135.9L273.4,135.9z"
				/>
		</g>
		<g>
			<path class="st0" d="M350.4,87.4h24.4v64.3h-24.4V87.4z"/>
		</g>
		<g>
			<path class="st0" d="M384.3,87.4h33.8l25.4,33h0.1l-0.2-33h21.4v64.3h-28.3l-31-40.2h-0.2l0.4,40.2h-21.4L384.3,87.4L384.3,87.4z
				"/>
		</g>
		<g>
			<path class="st0" d="M472.1,120.4c0-18.8,13.5-34.2,41.9-34.2c28.4,0,37.4,12.2,37.4,24.4c0,0.6,0,1.6-0.1,2.4h-20.3v-0.5
				c0-4.4-4.1-9.2-15.7-9.2s-18.2,7-18.2,17.1s5.3,17.1,18,17.1c10.9,0,14.8-5.5,14.8-8.9v-0.2h-17.2v-10h39.7v33.1h-18.7
				c0.1-2.5,0.2-7.4,0.2-11.4h-0.2c-2.2,7.3-9.4,12.6-24,12.6C482.7,152.8,472.1,137.4,472.1,120.4L472.1,120.4z"/>
		</g>
		<g>
			<g>
				<path class="st0" d="M0,163.4h69.1c43.8,0,57.2,13.2,57.2,33.3c0,11-4.7,21.9-20.7,26.3v0.3c17.9,3.7,20.2,15.6,20.2,26.9v23.2
					H84.1v-24.4c0-9.4-3.8-13.4-14.4-13.4H41.8v37.8H0V163.4z M69.6,215.8c12.5,0,17.1-4.7,17.1-11.7c0-6.5-4.5-11.2-19.1-11.2H41.8
					v22.9L69.6,215.8L69.6,215.8z"/>
			</g>
			<g>
				<path class="st0" d="M239.2,253.8h-52.5l-8.9,19.7h-42.2l54.7-110.1h52.3l54.7,110.1h-49.3L239.2,253.8L239.2,253.8z
					 M230.3,233.9l-17.1-38.1h-0.5l-17.1,38.1H230.3z"/>
			</g>
			<g>
				<path class="st0" d="M297.6,218.6c0-32.8,23.4-57.2,70.8-57.2c50.2,0,65.6,26.4,65.6,45.8c0,0.7,0,2.3-0.2,3.3h-35.5v-0.7
					c0-9.4-8.5-19.1-27.1-19.1s-29.6,11.7-29.6,27.8s9,27.4,29.8,27.4c17.7,0,27.3-7.9,27.3-18.7v-0.8H434c0.2,1.2,0.2,2.5,0.2,2.8
					c0,22.2-16.7,46.2-65.7,46.2C314.8,275.5,297.6,247.1,297.6,218.6L297.6,218.6z"/>
			</g>
			<g>
				<path class="st0" d="M446.6,163.4h104.9v29.4h-63.1v16.2h46.3v18.2h-46.3v16.7h64.7v29.4H446.6V163.4L446.6,163.4z"/>
			</g>
		</g>
		<g>
			<g>
				<path class="st2" d="M213.4,27.2h-15.8V14.8h48.5v12.4h-15.8v32.2h-17L213.4,27.2L213.4,27.2z"/>
			</g>
			<g>
				<path class="st2" d="M250.8,14.8h17v15.6h22.1V14.8h16.9v44.7h-16.9V42.7h-22.1v16.7h-17V14.8z"/>
			</g>
			<g>
				<path class="st2" d="M313,14.8h42.6v12H330v6.6h18.8v7.4H330v6.8h26.3v12H313L313,14.8L313,14.8z"/>
			</g>
		</g>
	</g>
</g>
</svg>
