<svg width="20" height="31" viewBox="0 0 20 31" fill="none" xmlns="http://www.w3.org/2000/svg">
<path d="M9.717 30.475C8.07379 27.6988 6.43059 24.9602 4.82248 22.1947C3.55873 20.0206 2.33845 17.8197 1.10646 15.626C0.548137 14.6295 0.300736 13.52 0.123544 12.3873C-0.000156569 11.5844 -0.0386039 10.7797 0.0433057 9.96775C0.294049 7.46394 1.20509 5.28632 2.8717 3.50479C4.45305 1.81468 6.36539 0.803831 8.592 0.531405C11.8299 0.135312 14.5714 1.26803 16.8214 3.74854C18.1838 5.25047 18.9845 7.08577 19.3288 9.15047C19.6799 11.2582 19.4158 13.2942 18.5666 15.2084C18.0417 16.3895 17.3664 17.4989 16.7245 18.6173C15.3955 20.9311 14.0482 23.2324 12.6975 25.5319C11.7514 27.1396 10.7868 28.7347 9.829 30.3334C9.80225 30.3782 9.76381 30.4176 9.71867 30.475H9.717ZM9.7404 15.5059C12.1258 15.4987 14.0666 13.4161 14.0632 10.8657C14.0599 8.31168 12.1158 6.2416 9.72703 6.24698C7.34998 6.25236 5.40755 8.33319 5.41257 10.8693C5.41758 13.4197 7.37171 15.5131 9.7404 15.5059Z" fill="#007273"/>
</svg>
